IKResults
version=1
nRows=7
nColumns=55
inDegrees=yes

Units are S.I. units (second, meters, Newtons, ...)
If the header above contains a line with 'inDegrees', this indicates whether rotational values are in degrees (yes) or radians (no).

endheader
time	pelvis_tilt	pelvis_list	pelvis_rotation	pelvis_tx	pelvis_ty	pelvis_tz	hip_flexion_r	hip_adduction_r	hip_rotation_r	hip_flexion_l	hip_adduction_l	hip_rotation_l	flex_extension	lat_bending	axial_rotation	L4_L5_IVDjnt_r3	L4_L5_IVD_bendjnt_r1	L4_L5_IVD_rotjnt_r2	L3_L4_IVDjnt_r3	L3_L4_IVD_bendjnt_r1	L3_L4_IVD_rotjnt_r2	L2_L3_IVDjnt_r3	L2_L3_IVD_bendjnt_r1	L2_L3_IVD_rotjnt_r2	L1_L2_IVDjnt_r3	L1_L2_IVD_bendjnt_r1	L1_L2_IVD_rotjnt_r2	Torso_Rot	Abs_r3	Abs_t1	Abs_t2	LB_wrapjnt_r3	LB_wrapjnt_t1	LB_wrapjnt_t2	SC_y	SC_x	SC_z	SC_y_l	SC_x_l	SC_z_l	arm_flex_r	arm_add_r	arm_rot_r	elbow_flex_r	pro_sup_r	wrist_flex_r	wrist_dev_r	arm_flex_l	arm_add_l	arm_rot_l	elbow_flex_l	pro_sup_l	wrist_flex_l	wrist_dev_l
      5.00000000	     -9.39424319	    -81.36841809	     89.92714779	      1.22079445	      0.86768122	     -0.48318784	      0.00000000	     -0.00000000	      0.00000000	      0.00000000	     -0.00000000	      0.00000000	      1.64333531	     -0.43598242	      0.97831148	     13.55848953	     -4.52351085	      2.36669090	     19.27800652	     -6.12835788	      2.36669090	     23.22060814	     -6.24818809	      1.86843493	      0.48343967	     -4.69471088	      1.61931407	     11.52701820	     60.52898214	      0.00000000	      0.00000000	     56.49370639	      0.05432082	      0.01810694	     29.92567621	     -5.47991432	     34.13175937	     29.96234795	    -15.86087908	     -4.41416538	    -18.71626294	      6.66161600	     37.48482368	     13.53210641	     88.72797961	      9.38569654	      8.78597969	    -47.46403415	    -24.06781783	    -36.30682334	     54.36720002	     88.21312422	     20.17498030	      6.42692223
      5.01000000	     -9.34041708	    -81.30334442	     89.92732314	      1.22113598	      0.86772107	     -0.48053017	      0.00000000	     -0.00000000	      0.00000000	      0.00000000	     -0.00000000	      0.00000000	      1.64450014	     -0.43598201	      0.97831422	     13.56810012	     -4.52350657	      2.36669751	     19.29167124	     -6.12835208	      2.36669751	     23.23706747	     -6.24818218	      1.86844015	      0.48378234	     -4.69470644	      1.61931860	     11.52705042	     60.57188655	      0.00000000	      0.00000000	     56.53375050	      0.05435933	      0.01811978	     29.92633041	     -5.48599974	     34.06519809	     29.96245973	    -15.74607849	     -4.45751142	    -18.82158403	      6.71301470	     37.49924160	     13.45818616	     88.73247755	      9.38854478	      8.79461311	    -47.36911559	    -24.00165864	    -36.24851070	     54.42765208	     88.21733852	     20.18332323	      6.42600311
      5.02000000	     -9.31153274	    -81.23186749	     89.92845011	      1.22117144	      0.86759987	     -0.47775711	      0.00000000	     -0.00000000	      0.00000000	      0.00000000	     -0.00000000	      0.00000000	      1.64539184	     -0.43598114	      0.97831504	     13.57545714	     -4.52349757	      2.36669950	     19.30213174	     -6.12833989	      2.36669950	     23.24966728	     -6.24816975	      1.86844172	      0.48404466	     -4.69469710	      1.61931996	     11.52706010	     60.60473038	      0.00000000	      0.00000000	     56.56440473	      0.05438880	      0.01812960	     29.92647782	     -5.73966373	     34.16235426	     29.96242203	    -15.70812879	     -4.20904551	    -18.96206227	      7.14074704	     37.50329061	     12.80346879	     88.73825326	      9.43451707	      8.86795650	    -47.06691789	    -23.91737068	    -36.10611262	     54.66419332	     88.15140456	     20.29077910	      6.53635800
      5.03000000	     -9.23632902	    -81.17881397	     89.92865413	      1.22164113	      0.86762240	     -0.47491054	      0.00000000	     -0.00000000	      0.00000000	      0.00000000	     -0.00000000	      0.00000000	      1.64659473	     -0.43598163	      0.97831939	     13.58538169	     -4.52350265	      2.36671003	     19.31624287	     -6.12834678	      2.36671003	     23.26666432	     -6.24817677	      1.86845003	      0.48439853	     -4.69470237	      1.61932716	     11.52711137	     60.64903643	      0.00000000	      0.00000000	     56.60575704	      0.05442857	      0.01814286	     29.92725185	     -5.76335806	     34.10491102	     29.96266440	    -15.58979479	     -4.26044006	    -19.02188476	      7.19413292	     37.49975871	     12.70266031	     88.74095498	      9.44611380	      8.87809747	    -46.99954644	    -23.85353711	    -36.07694361	     54.70364576	     88.14700459	     20.30448721	      6.54841385
      5.04000000	     -9.16470465	    -81.27791340	     89.92816302	      1.22205245	      0.86771293	     -0.47173160	      0.00000000	     -0.00000000	      0.00000000	      0.00000000	     -0.00000000	      0.00000000	      1.65070751	     -0.43598125	      0.97831922	     13.61931457	     -4.52349865	      2.36670962	     19.36449001	     -6.12834136	      2.36670962	     23.32477862	     -6.24817125	      1.86844970	      0.48560844	     -4.69469822	      1.61932688	     11.52710938	     60.80052254	      0.00000000	      0.00000000	     56.74714405	      0.05456451	      0.01818817	     29.92704987	     -6.07325820	     34.16096874	     29.96274919	    -15.54552488	     -4.09965681	    -18.83101423	      8.25123986	     35.26311993	     10.63827331	     88.84843959	     11.24564683	      6.95891545	    -46.79208863	    -23.71090525	    -36.13957741	     54.91947449	     88.12640166	     21.26232953	      8.15157894
      5.05000000	     -9.07608458	    -81.24145588	     89.92841784	      1.22257878	      0.86774771	     -0.46860010	      0.00000000	     -0.00000000	      0.00000000	      0.00000000	     -0.00000000	      0.00000000	      1.65184279	     -0.43598199	      0.97832430	     13.62868136	     -4.52350637	      2.36672189	     19.37780809	     -6.12835182	      2.36672189	     23.34082041	     -6.24818191	      1.86845939	      0.48594242	     -4.69470623	      1.61933528	     11.52716915	     60.84233856	      0.00000000	      0.00000000	     56.78617233	      0.05460204	      0.01820068	     29.92821311	     -6.09144384	     34.13747358	     29.96297284	    -15.43541772	     -4.11583779	    -18.88849220	      8.27436082	     35.27266012	     10.55277029	     88.85424919	     11.25035583	      6.96594945	    -46.74544474	    -23.60829188	    -36.10725072	     54.99134411	     88.12688325	     21.26576839	      8.14466825
      5.06000000	     -8.99559736	    -81.27888865	     89.92834661	      1.22291271	      0.86774981	     -0.46521535	      0.00000000	     -0.00000000	      0.00000000	      0.00000000	     -0.00000000	      0.00000000	      1.65471038	     -0.43598252	      0.97832681	     13.65234065	     -4.52351185	      2.36672798	     19.41144782	     -6.12835923	      2.36672798	     23.38133990	     -6.24818947	      1.86846420	      0.48678601	     -4.69471191	      1.61933945	     11.52719880	     60.94796040	      0.00000000	      0.00000000	     56.88475269	      0.05469683	      0.01823228	     29.92866974	     -6.28412410	     34.26262466	     29.96306815	    -15.40861823	     -3.90880385	    -18.91818050	      8.65552895	     35.32096922	      9.75434471	     88.87708219	     11.33869623	      7.02607781	    -46.61710472	    -23.35695323	    -36.18931071	     55.34522253	     88.10524069	     21.26475096	      8.12498730
